<svg xmlns="http://www.w3.org/2000/svg" width="33.373" height="45.338" viewBox="0 0 33.373 45.338">
  <g id="Group_20" data-name="Group 20" transform="translate(-333.359 -148.166)">
    <ellipse id="Ellipse_20" data-name="Ellipse 20" cx="8" cy="9.5" rx="8" ry="9.5" transform="translate(342 155)" fill="#fff"/>
    <path id="Icon_awesome-award" data-name="Icon awesome-award" d="M8.441,32.11c-.755-.769-.362-.553-2.183-1.049a6.232,6.232,0,0,1-2.21-1.179L.1,39.732a1.413,1.413,0,0,0,1.341,1.951L6.025,41.5l3.15,3.39a1.378,1.378,0,0,0,2.3-.439l4.524-11.3A6.149,6.149,0,0,1,8.441,32.11Zm24.828,7.621-3.943-9.85a6.218,6.218,0,0,1-2.21,1.179c-1.831.5-1.43.282-2.183,1.049a6.15,6.15,0,0,1-7.555,1.044l4.524,11.3a1.378,1.378,0,0,0,2.3.439l3.15-3.39,4.579.178a1.414,1.414,0,0,0,1.341-1.951ZM22.857,30.107c1.328-1.377,1.48-1.258,3.371-1.783A3.567,3.567,0,0,0,28.7,25.757c.65-2.515.481-2.211,2.255-4.051a3.721,3.721,0,0,0,.906-3.5c-.649-2.513-.65-2.162,0-4.678a3.721,3.721,0,0,0-.906-3.5c-1.774-1.84-1.605-1.537-2.255-4.051A3.567,3.567,0,0,0,26.228,3.4c-2.423-.674-2.131-.5-3.907-2.339a3.415,3.415,0,0,0-3.38-.939C16.52.8,16.858.8,14.431.123a3.413,3.413,0,0,0-3.38.939C9.278,2.9,9.57,2.727,7.146,3.4A3.567,3.567,0,0,0,4.671,5.967c-.649,2.514-.481,2.211-2.255,4.051a3.719,3.719,0,0,0-.906,3.5c.649,2.511.65,2.161,0,4.677a3.724,3.724,0,0,0,.906,3.506c1.774,1.84,1.605,1.536,2.255,4.051a3.567,3.567,0,0,0,2.474,2.566c1.945.54,2.09.455,3.37,1.783a3.407,3.407,0,0,0,4.323.515,3.394,3.394,0,0,1,3.7,0A3.406,3.406,0,0,0,22.857,30.107ZM8.488,15.581a8.355,8.355,0,0,1,8.2-8.5,8.355,8.355,0,0,1,8.2,8.5,8.355,8.355,0,0,1-8.2,8.5,8.355,8.355,0,0,1-8.2-8.5Z" transform="translate(333.359 148.167)" fill="#ebb957"/>
    <path id="Icon_awesome-check" data-name="Icon awesome-check" d="M3.485,14.858.15,10.288a.9.9,0,0,1,0-.994L.876,8.3a.422.422,0,0,1,.725,0l2.246,3.079L8.658,4.783a.422.422,0,0,1,.725,0l.725.994a.9.9,0,0,1,0,.994l-5.9,8.086A.422.422,0,0,1,3.485,14.858Z" transform="translate(344.916 154.194)" fill="#ebb957"/>
  </g>
</svg>
