<svg xmlns="http://www.w3.org/2000/svg" width="243.805" height="235.282" viewBox="0 0 243.805 235.282">
  <g id="instagram" transform="translate(-0.449 0)">
    <path id="Path_1" data-name="Path 1" d="M243.634,69.174c-.571-12.5-2.667-21.1-5.668-28.544a57.265,57.265,0,0,0-14.1-20.866A60.27,60.27,0,0,0,202.285,6.2c-7.763-2.9-16.624-4.918-29.581-5.469C159.65.138,155.506,0,122.4,0S85.147.138,72.142.689C59.185,1.241,50.277,3.264,42.56,6.158A59.748,59.748,0,0,0,20.932,19.764,57.772,57.772,0,0,0,6.879,40.585c-3,7.492-5.1,16.04-5.668,28.542C.592,81.722.449,85.721.449,117.665s.143,35.942.715,48.491c.571,12.5,2.668,21.1,5.67,28.544a57.867,57.867,0,0,0,14.1,20.866,60.269,60.269,0,0,0,21.58,13.559c7.765,2.9,16.624,4.918,29.583,5.469,13,.553,17.149.689,50.257.689s37.252-.136,50.257-.689c12.957-.551,21.865-2.573,29.581-5.469A61.32,61.32,0,0,0,237.871,194.7c3-7.492,5.1-16.042,5.668-28.544.571-12.548.715-16.547.715-48.491s-.048-35.942-.62-48.491Zm-21.959,96.062c-.525,11.491-2.525,17.7-4.192,21.832a39.768,39.768,0,0,1-23.152,22.339c-4.287,1.609-10.765,3.539-22.627,4.043-12.862.553-16.719.689-49.255.689S86.005,214,73.19,213.45c-11.909-.5-18.34-2.435-22.627-4.043a37.686,37.686,0,0,1-14-8.78,36.478,36.478,0,0,1-9.1-13.512c-1.667-4.137-3.668-10.388-4.191-21.832-.573-12.41-.715-16.134-.715-47.526s.141-35.161.715-47.525c.523-11.491,2.523-17.7,4.191-21.832a35.671,35.671,0,0,1,9.148-13.514,38.019,38.019,0,0,1,14-8.778C54.9,24.5,61.378,22.569,73.238,22.062c12.862-.551,16.721-.689,49.255-.689,32.585,0,36.442.138,49.257.689,11.909.506,18.34,2.436,22.627,4.045a37.659,37.659,0,0,1,14,8.778,36.47,36.47,0,0,1,9.1,13.514c1.667,4.137,3.668,10.387,4.192,21.832.571,12.41.715,16.132.715,47.525s-.143,35.07-.715,47.48Zm0,0" transform="translate(0 0)" fill="#03a9f4"/>
    <path id="Path_2" data-name="Path 2" d="M174.427,124.5c-27.315,0-49.478,19.417-49.478,43.351S147.111,211.2,174.427,211.2,223.9,191.785,223.9,167.851,201.744,124.5,174.427,124.5Zm0,71.471c-17.721,0-32.1-12.593-32.1-28.12s14.374-28.12,32.1-28.12,32.1,12.593,32.1,28.12-14.373,28.12-32.1,28.12Zm0,0" transform="translate(-52.018 -50.179)" fill="#03a9f4"/>
    <path id="Path_3" data-name="Path 3" d="M423.852,119.3a30.7,30.7,0,1,1-30.7-30.7,30.7,30.7,0,0,1,30.7,30.7Zm0,0" transform="translate(-215.398 -54.403)" fill="#03a9f4"/>
  </g>
</svg>
