<?xml version="1.0" standalone="no"?>
<!DOCTYPE svg PUBLIC "-//W3C//DTD SVG 20010904//EN"
 "http://www.w3.org/TR/2001/REC-SVG-20010904/DTD/svg10.dtd">
<svg version="1.0" xmlns="http://www.w3.org/2000/svg"
 width="55.000000pt" height="55.000000pt" viewBox="0 0 55.000000 55.000000"
 preserveAspectRatio="xMidYMid meet">

<g transform="translate(0.000000,55.000000) scale(0.100000,-0.100000)"
fill="#000000" stroke="none">
<path d="M199 537 c-117 -33 -193 -138 -193 -267 0 -106 54 -190 154 -241 63
-33 167 -33 230 0 204 105 206 386 5 490 -52 26 -137 34 -196 18z m121 -207
c0 -5 -3 -10 -7 -10 -5 -1 -21 -11 -37 -24 l-28 -23 41 -24 c26 -14 38 -26 32
-32 -11 -11 -101 41 -101 58 1 12 70 64 88 65 6 0 12 -4 12 -10z"/>
</g>
</svg>
