<svg xmlns="http://www.w3.org/2000/svg" width="130.587" height="99.917" viewBox="0 0 130.587 99.917">
  <path id="twitter" d="M130.587,59.829a58.538,58.538,0,0,1-15.426,3.981,25.4,25.4,0,0,0,11.777-13.935,55.552,55.552,0,0,1-16.976,6.1A27.627,27.627,0,0,0,90.407,48C75.585,48,63.653,59.329,63.653,73.217a24.5,24.5,0,0,0,.62,5.749A77.421,77.421,0,0,1,9.092,52.6,24.264,24.264,0,0,0,5.428,65.339,24.9,24.9,0,0,0,17.319,86.291a27.7,27.7,0,0,1-12.1-3.105v.277c0,12.251,9.28,22.427,21.449,24.772a28.284,28.284,0,0,1-7.019.83,25.093,25.093,0,0,1-5.068-.43C18.054,118.618,27.9,125.958,39.6,126.2A55.945,55.945,0,0,1,6.407,136.949,53.212,53.212,0,0,1,0,136.6a78.794,78.794,0,0,0,41.07,11.314c49.264,0,76.2-38.43,76.2-71.74,0-1.114-.041-2.19-.1-3.259A51.8,51.8,0,0,0,130.587,59.829Z" transform="translate(0 -48)" fill="#03a9f4"/>
</svg>
