<svg xmlns="http://www.w3.org/2000/svg" width="172.154" height="127.333" viewBox="0 0 172.154 127.333">
  <path id="youtube" d="M168.607,13.843A22.209,22.209,0,0,0,153.435-2.188C139.963-6.082,86.076-6.082,86.076-6.082s-53.885,0-67.357,3.746A22.673,22.673,0,0,0,3.546,13.843C0,28.073,0,57.584,0,57.584s0,29.66,3.545,43.742a22.212,22.212,0,0,0,15.174,16.03c13.612,3.895,67.358,3.895,67.358,3.895s53.885,0,67.357-3.746a22.21,22.21,0,0,0,15.175-16.028c3.544-14.231,3.544-43.742,3.544-43.742s.142-29.662-3.546-43.892ZM68.919,84.848V30.32l44.81,27.264Zm0,0" transform="translate(-0.001 6.082)" fill="#03a9f4"/>
</svg>
